<?xml version="1.0" encoding="UTF-8"?>
<svg version="1.1" xmlns="http://www.w3.org/2000/svg" width="396" height="287">
<path d="M0 0 C130.68 0 261.36 0 396 0 C396 94.71 396 189.42 396 287 C265.32 287 134.64 287 0 287 C0 192.29 0 97.58 0 0 Z " fill="#1B1E2A" transform="translate(0,0)"/>
<path d="M0 0 C0.97498947 -0.02882263 1.94997894 -0.05764526 2.95451355 -0.08734131 C4.00762222 -0.10009094 5.0607309 -0.11284058 6.14575195 -0.12597656 C7.23233597 -0.14307678 8.31891998 -0.160177 9.43843079 -0.17779541 C11.74076574 -0.20615114 14.04322256 -0.22574976 16.34570312 -0.23730469 C19.85481016 -0.2663596 23.3585918 -0.35935446 26.86645508 -0.45410156 C29.10535612 -0.47369982 31.34429482 -0.48944806 33.58325195 -0.50097656 C34.62623947 -0.53801697 35.66922699 -0.57505737 36.74382019 -0.61322021 C41.22367316 -0.57251022 44.06738237 -0.43460482 47.61856079 2.45251465 C49.64821375 4.712226 51.45212072 6.99924799 53.1965332 9.48339844 C56.00023782 13.16826736 57.95944357 15.52787152 62.1965332 17.48339844 C65.51073712 17.8979132 68.79797968 17.85300729 72.1340332 17.81933594 C74.10018236 17.83184456 76.06632822 17.84488151 78.0324707 17.85839844 C81.1201541 17.86233305 84.20751328 17.85834653 87.29516602 17.84375 C90.28361282 17.83518166 93.27070562 17.8568536 96.2590332 17.88183594 C97.64046509 17.86182022 97.64046509 17.86182022 99.04980469 17.84140015 C103.6644263 17.89457217 105.55508177 17.96431841 109.25512695 20.95849609 C109.89579102 21.79171387 110.53645508 22.62493164 111.1965332 23.48339844 C111.5265332 23.81339844 111.8565332 24.14339844 112.1965332 24.48339844 C112.41849266 27.42956348 112.57781428 30.35665712 112.6965332 33.30761719 C112.73686676 34.22427155 112.77720032 35.1409259 112.8187561 36.08535767 C112.95007143 39.11366868 113.07374497 42.14223044 113.1965332 45.17089844 C113.23977722 46.20459564 113.28302124 47.23829285 113.32757568 48.30331421 C114.10859572 66.9765474 114.75212272 85.65113646 115.11303711 104.33740234 C115.16531639 107.03807927 115.22920921 109.73763041 115.29956055 112.43798828 C115.38985614 115.95309957 115.45408632 119.46758275 115.5090332 122.98339844 C115.55374756 124.47867065 115.55374756 124.47867065 115.59936523 126.00415039 C115.64685587 131.7166681 115.05905866 134.97363898 111.1965332 139.48339844 C110.73519391 140.02238172 110.27385462 140.56136499 109.79853535 141.1166811 C106.94117645 143.55438192 103.10367187 142.92189117 99.51171875 142.91577148 C98.61780898 142.9259603 97.72389921 142.93614912 96.80290127 142.94664669 C93.8129559 142.97704217 90.82333253 142.98610655 87.83325195 142.99511719 C85.71685787 143.01206507 83.60047352 143.03026867 81.48410034 143.0496521 C75.79484905 143.09787601 70.10564009 143.12741472 64.41624832 143.15315628 C59.72333675 143.17672856 55.03053458 143.21124175 50.33769512 143.24607372 C11.95808966 143.53062052 -26.42302595 143.61487404 -64.8034668 143.48339844 C-64.8034668 142.82339844 -64.8034668 142.16339844 -64.8034668 141.48339844 C-62.82048585 139.75096362 -60.83076037 138.1411776 -58.7409668 136.54589844 C-58.12060547 136.06443359 -57.50024414 135.58296875 -56.86108398 135.08691406 C-51.52907003 130.97387479 -46.09678523 126.99633673 -40.60400391 123.10083008 C-37.73987073 121.04292017 -35.78130034 119.45014875 -33.8034668 116.48339844 C-33.3034668 113.98339844 -33.3034668 113.98339844 -33.8034668 111.48339844 C-36.29287948 108.70467563 -38.55998197 108.25001634 -42.1315918 107.97167969 C-43.77165029 107.89893516 -45.41240919 107.84077111 -47.0534668 107.79589844 C-47.89393555 107.76173828 -48.7344043 107.72757812 -49.6003418 107.69238281 C-51.66758884 107.61016276 -53.73550554 107.54509687 -55.8034668 107.48339844 C-53.55595277 102.72435114 -50.48689394 98.62268122 -47.4284668 94.35839844 C-46.8509668 93.5346875 -46.2734668 92.71097656 -45.6784668 91.86230469 C-44.83155273 90.68087891 -44.83155273 90.68087891 -43.9675293 89.47558594 C-43.45657715 88.75741699 -42.945625 88.03924805 -42.41918945 87.29931641 C-40.68695597 85.35245139 -39.19127815 84.47772682 -36.8034668 83.48339844 C-36.7519043 84.09183594 -36.7003418 84.70027344 -36.6472168 85.32714844 C-34.73850996 100.07624672 -26.26160408 114.28911737 -14.9284668 123.73339844 C-0.25217314 134.90159164 14.42497166 137.57723254 32.6184082 136.31542969 C46.40871825 134.34869084 59.64674011 125.62946605 68.21606445 114.97167969 C75.65434487 104.74600155 79.6004973 95.07844104 79.5090332 82.35839844 C79.50057373 81.1171521 79.50057373 81.1171521 79.49194336 79.85083008 C79.26214363 68.07302501 77.10917153 58.22936506 70.1965332 48.48339844 C69.55264648 47.45666016 69.55264648 47.45666016 68.89575195 46.40917969 C61.15269439 34.7831729 46.5960975 26.61280836 33.1965332 23.48339844 C30.33590986 23.19501659 27.5077542 23.14914901 24.6340332 23.17089844 C23.84826904 23.17653809 23.06250488 23.18217773 22.25292969 23.18798828 C3.63519988 23.56929026 -9.10575654 30.46917634 -21.8034668 43.48339844 C-27.84047519 50.22267107 -31.46757826 58.14367709 -34.8034668 66.48339844 C-53.2834668 66.48339844 -71.7634668 66.48339844 -90.8034668 66.48339844 C-92.13742702 56.47869677 -93.14399028 47.22096926 -93.1159668 37.23339844 C-93.13208008 36.0384375 -93.14819336 34.84347656 -93.16479492 33.61230469 C-93.16543945 32.47148437 -93.16608398 31.33066406 -93.16674805 30.15527344 C-93.169729 29.13530273 -93.17270996 28.11533203 -93.17578125 27.06445312 C-92.8034668 24.48339844 -92.8034668 24.48339844 -91.7203064 22.84910583 C-88.80281737 20.77045703 -86.31202214 21.08157878 -82.76171875 21.05102539 C-82.04927002 21.04083374 -81.33682129 21.03064209 -80.6027832 21.0201416 C-78.24902538 20.98995893 -75.89567414 20.98073797 -73.54174805 20.97167969 C-71.90934389 20.95483684 -70.27695274 20.93668713 -68.64457703 20.9172821 C-64.3489081 20.86973284 -60.05329188 20.83995552 -55.75744629 20.81384277 C-51.37359202 20.78406198 -46.98991943 20.73752319 -42.60620117 20.69238281 C-34.00537887 20.6062937 -25.40454012 20.53897356 -16.8034668 20.48339844 C-16.41807739 19.73449341 -16.41807739 19.73449341 -16.02490234 18.97045898 C-14.85277401 16.70086185 -13.6719815 14.43588323 -12.4909668 12.17089844 C-12.0868457 11.38521484 -11.68272461 10.59953125 -11.26635742 9.79003906 C-10.8699707 9.03271484 -10.47358398 8.27539062 -10.06518555 7.49511719 C-9.52317505 6.45037231 -9.52317505 6.45037231 -8.97021484 5.38452148 C-6.47440036 1.3177905 -4.82248311 0.11520604 0 0 Z " fill="#DD3A6D" transform="translate(189.803466796875,96.5166015625)"/>
<path d="M0 0 C0.71800781 0.38414062 1.43601562 0.76828125 2.17578125 1.1640625 C4.22424514 2.33347684 6.09905675 3.60417555 8 5 C9.09248047 5.79277344 9.09248047 5.79277344 10.20703125 6.6015625 C18.09645915 12.91848092 25.24040014 23.1460684 26.82421875 33.3359375 C27.98752789 50.96653385 26.13228919 63.38244402 15.8125 78.125 C8.33690244 86.52909535 -2.94769022 93.14827279 -14.125 94.8125 C-15.40375 94.874375 -16.6825 94.93625 -18 95 C-18.74378906 95.05027344 -19.48757812 95.10054688 -20.25390625 95.15234375 C-34.74470753 95.73383658 -47.40876142 90.66543101 -58 81 C-69.06283584 69.34024855 -73.42858077 56.34736123 -73.43896484 40.5168457 C-73.04595428 26.85297842 -65.96553519 15.5762903 -56.375 6.25 C-41.46270205 -6.64959516 -17.26738357 -10.19705196 0 0 Z " fill="#1B1F29" transform="translate(235,132)"/>
<path d="M0 0 C2.04909846 -0.00878713 4.09810975 -0.0226387 6.14717102 -0.03768539 C9.92310941 -0.06100045 13.69844668 -0.06392414 17.47444153 -0.0595665 C18.58312088 -0.06868057 19.69180023 -0.07779465 20.83407593 -0.08718491 C22.3427549 -0.07798523 22.3427549 -0.07798523 23.88191223 -0.0685997 C25.18875725 -0.06954384 25.18875725 -0.06954384 26.52200317 -0.07050705 C29.21534761 0.38470374 30.1012374 1.1533105 31.73616028 3.30371475 C32.09260559 5.32715225 32.09260559 5.32715225 32.06428528 7.67871475 C32.05763855 9.0089064 32.05763855 9.0089064 32.05085754 10.36597061 C32.02950745 11.33542618 32.00815735 12.30488174 31.98616028 13.30371475 C31.97447815 14.33568985 31.96279602 15.36766495 31.95075989 16.43091202 C31.8309321 24.7868611 31.51236548 33.13535169 31.16291809 41.48437881 C30.59838193 55.51212896 30.37796915 69.5484414 30.12898254 83.58472061 C29.94108865 93.80257227 29.67830319 104.01404403 29.26741028 114.22558975 C29.23006775 115.22245804 29.19272522 116.21932632 29.1542511 117.24640274 C29.11489441 118.15831375 29.07553772 119.07022476 29.0349884 120.00976944 C29.00151306 120.81694412 28.96803772 121.6241188 28.93354797 122.45575333 C28.73616028 124.30371475 28.73616028 124.30371475 27.73616028 125.30371475 C24.87146703 125.37701806 22.03722354 125.39589307 19.17366028 125.36621475 C17.66853588 125.3547259 16.16340869 125.34359971 14.65827942 125.33276749 C12.71683044 125.31838638 12.71683044 125.31838638 10.73616028 125.30371475 C10.00716372 114.94348692 9.65684107 104.61953209 9.59553528 94.23340225 C9.57612665 91.91308872 9.55659388 89.59277623 9.53694153 87.27246475 C9.50781547 83.70230142 9.48615408 80.13279462 9.485672 76.56250381 C9.4823383 73.05641098 9.44785976 69.55174604 9.40803528 66.04590225 C9.41510498 64.98434921 9.42217468 63.92279617 9.42945862 62.82907486 C9.31964359 56.12328414 8.40149833 51.30975978 3.73616028 46.30371475 C-1.77377495 41.37822061 -6.79349528 40.61628694 -13.98649597 40.807621 C-15.84261589 40.80579166 -17.69873569 40.8038347 -19.55485535 40.80176163 C-22.44704237 40.82904873 -25.3388793 40.8663992 -28.23088074 40.90893936 C-31.04574587 40.94164537 -33.85898635 40.93837966 -36.67399597 40.932621 C-37.96020592 40.96978981 -37.96020592 40.96978981 -39.2723999 41.0077095 C-44.8803955 40.98410003 -47.77417999 39.80681406 -51.83169556 35.91148758 C-57.26383972 29.81318128 -57.26383972 29.81318128 -57.26383972 26.30371475 C-60.52325886 24.37397127 -62.98564995 24.04094694 -66.75090027 24.00073624 C-68.39731758 23.97577324 -68.39731758 23.97577324 -70.07699585 23.95030594 C-71.84590935 23.93768471 -71.84590935 23.93768471 -73.65055847 23.9248085 C-75.46968498 23.89931679 -75.46968498 23.89931679 -77.32556152 23.87331009 C-81.200768 23.82014859 -85.07596333 23.77985571 -88.95133972 23.74121475 C-92.83737392 23.69735216 -96.72332315 23.65072595 -100.60925293 23.59840775 C-103.02861161 23.56633759 -105.44804578 23.53948337 -107.86752319 23.51817703 C-108.95567825 23.50468719 -110.04383331 23.49119736 -111.16496277 23.47729874 C-112.12774643 23.46778687 -113.09053009 23.45827499 -114.08248901 23.44847488 C-116.26383972 23.30371475 -116.26383972 23.30371475 -117.26383972 22.30371475 C-117.41738311 19.49859522 -117.49549748 16.73507804 -117.51383972 13.92871475 C-117.53446472 13.14754288 -117.55508972 12.366371 -117.57633972 11.56152725 C-117.61545424 5.85080744 -117.61545424 5.85080744 -116.16111755 3.58794022 C-113.33211317 1.67304963 -110.97490448 1.85959737 -107.57926941 1.77954483 C-106.89853269 1.75961377 -106.21779596 1.73968271 -105.51643085 1.71914768 C-103.23964514 1.6563071 -100.96298378 1.61464999 -98.68571472 1.573246 C-97.0668263 1.53357269 -95.4479653 1.4927664 -93.82913208 1.45090103 C-89.4634619 1.34239066 -85.09760134 1.2534497 -80.73139572 1.16958618 C-78.02129959 1.11636126 -75.31135306 1.05825165 -72.60139465 0.99844742 C-48.40398608 0.46600325 -24.20334523 0.08426151 0 0 Z " fill="#DC4572" transform="translate(302.2638397216797,65.69628524780273)"/>
<path d="M0 0 C4.82782495 2.17322912 8.10083744 5.62234714 11 10 C11.73046875 12.1484375 11.73046875 12.1484375 12.1875 14.375 C12.34605469 15.10460938 12.50460937 15.83421875 12.66796875 16.5859375 C13.05644341 19.41037681 13.02074466 22.15188064 13 25 C13.80630859 24.98428955 14.61261719 24.9685791 15.44335938 24.95239258 C19.1288337 24.88968024 22.81419535 24.8508938 26.5 24.8125 C27.7684375 24.78736328 29.036875 24.76222656 30.34375 24.73632812 C44.86679227 24.62286686 44.86679227 24.62286686 51.2421875 29.83203125 C57.80335689 37.79019604 58.29584708 43.84258373 58 54 C58.67804688 53.95359375 59.35609375 53.9071875 60.0546875 53.859375 C68.55354073 53.52977958 75.29202809 54.92317225 81.9375 60.4375 C88.02993801 68.00689267 87.82058933 74.68030681 87 84 C85.82549888 93.85015669 84.19818746 103.6379556 82.59753418 113.42596436 C82.02392651 116.95233185 81.4660373 120.48118305 80.90625 124.00976562 C79.83187245 130.76605361 78.72651012 137.51687786 77.6105957 144.26641846 C77.03098474 147.81053905 76.47288631 151.35740153 75.91992188 154.90576172 C75.58779597 156.96721211 75.25515007 159.02857883 74.921875 161.08984375 C74.71634003 162.46022545 74.71634003 162.46022545 74.50665283 163.85829163 C73.38809913 170.60550603 71.58831181 175.71265468 66.3125 180.375 C63.25794782 181.87345956 61.58069098 182.29642359 58.29296875 182.6015625 C57.08483521 182.71878662 57.08483521 182.71878662 55.85229492 182.83837891 C55.2410376 182.89171387 54.62978027 182.94504883 54 183 C54.01571045 183.71542969 54.0314209 184.43085938 54.04760742 185.16796875 C54.11040747 188.44523039 54.14913303 191.7223649 54.1875 195 C54.22520508 196.68802734 54.22520508 196.68802734 54.26367188 198.41015625 C54.33006129 205.9785499 53.90951518 211.83828842 49.45703125 218.20703125 C41.85552081 225.62798325 34.7033624 226.33958076 24.48828125 226.49609375 C20.45014472 227.07943038 18.93511098 228.2499398 16 231 C12.20612686 233.52924876 9.19262188 233.27408 4.79907227 233.24291992 C3.95755584 233.24479278 3.11603941 233.24666563 2.24902248 233.24859524 C-0.56193999 233.25225999 -3.37265321 233.24146474 -6.18359375 233.23046875 C-8.16992171 233.22965437 -10.15625012 233.22961874 -12.14257812 233.23031616 C-17.47215896 233.22926593 -22.80162686 233.21498927 -28.13117599 233.19743729 C-31.42697998 233.18753162 -34.72277035 233.18123342 -38.01858521 233.17623901 C-64.8266576 233.13517951 -91.63278674 233.00437527 -118.4375 232.5625 C-119.6642746 232.54303314 -120.89104919 232.52356628 -122.15499878 232.50350952 C-125.56050728 232.44709728 -128.96578378 232.38365892 -132.37109375 232.31640625 C-133.33233154 232.29967865 -134.29356934 232.28295105 -135.28393555 232.26571655 C-140.91343245 232.14025738 -146.41193728 231.69961933 -152 231 C-152 229.68 -152 228.36 -152 227 C-144.39604782 225.79582495 -136.82552091 225.82198781 -129.14208984 225.78222656 C-127.64327136 225.77095456 -126.14445642 225.75920251 -124.64564514 225.74700928 C-121.43130004 225.72140258 -118.21694983 225.69823472 -115.00257492 225.67670441 C-109.9174522 225.64167617 -104.83247224 225.59531163 -99.74746704 225.54632568 C-98.88755169 225.53809351 -98.02763634 225.52986134 -97.14166296 225.52137971 C-95.38415633 225.50454115 -93.62664992 225.48768043 -91.86914372 225.47079802 C-80.04012799 225.35771983 -68.21115451 225.25253123 -56.38183594 225.17675781 C-48.3880654 225.12546663 -40.39465428 225.056708 -32.40121043 224.96783805 C-28.17571406 224.92157112 -23.95056346 224.88430208 -19.72483444 224.86847687 C-15.75338043 224.85348779 -11.78280827 224.81553136 -7.81171989 224.76004791 C-6.35655247 224.74380578 -4.90126232 224.73598955 -3.44600487 224.73731995 C5.23508432 225.0512871 5.23508432 225.0512871 12.84994507 221.57904053 C14.98837002 219.21428467 14.98837002 219.21428467 16 217 C16.91495239 216.97812622 16.91495239 216.97812622 17.84838867 216.95581055 C20.62871064 216.88105225 23.40786824 216.78448518 26.1875 216.6875 C27.14720703 216.66494141 28.10691406 216.64238281 29.09570312 216.61914062 C36.07864662 216.43050118 36.07864662 216.43050118 42 213 C44.4352154 209.37803667 44.3280618 205.64392328 44.37890625 201.42578125 C44.39590073 200.70134323 44.4128952 199.97690521 44.43040466 199.23051453 C44.48339156 196.92459736 44.52378685 194.6186975 44.5625 192.3125 C44.60640372 189.99567902 44.6530344 187.67899812 44.70530701 185.36235046 C44.73731252 183.9223638 44.76418755 182.48225253 44.78553772 181.04206848 C44.88822257 176.11177743 44.88822257 176.11177743 46 175 C48.0823092 174.89411987 50.16602712 174.81541619 52.25 174.75 C56.50827149 174.4375091 58.56100177 174.28405768 62.1875 171.9375 C66.77929727 164.49562167 66.99413862 154.74558776 68.1875 146.25 C69.64994909 135.96006454 71.19215621 125.68872751 72.8828125 115.43359375 C73.04266129 114.45764252 73.20251007 113.48169128 73.36720276 112.47616577 C74.64887364 104.6536668 74.64887364 104.6536668 75.29354858 100.8470459 C79.20855415 84.20372006 79.20855415 84.20372006 76.95483398 68.14624023 C73.84331668 64.879347 71.06562349 63.88849981 66.71875 63.75390625 C65.87699219 63.72103516 65.03523438 63.68816406 64.16796875 63.65429688 C62.38945288 63.59310343 60.6107985 63.53581094 58.83203125 63.48242188 C57.99027344 63.44826172 57.14851563 63.41410156 56.28125 63.37890625 C55.50845703 63.3538501 54.73566406 63.32879395 53.93945312 63.30297852 C52 63 52 63 50 61 C49.74462891 59.12402344 49.74462891 59.12402344 49.7265625 56.859375 C49.695625 55.62380859 49.695625 55.62380859 49.6640625 54.36328125 C49.63825584 52.63681538 49.61988719 50.91022048 49.609375 49.18359375 C49.45571964 43.69468299 48.834786 40.24330272 45 36 C40.74926338 33.74546028 36.56494 33.6594734 31.85546875 33.5859375 C31.08568192 33.56657135 30.31589508 33.5472052 29.52278137 33.5272522 C27.07779829 33.46774377 24.63276738 33.42118705 22.1875 33.375 C20.52406866 33.33679369 18.86065653 33.29774043 17.19726562 33.2578125 C13.13166759 33.16206617 9.06597699 33.07792991 5 33 C4.86722656 31.83082031 4.73445312 30.66164063 4.59765625 29.45703125 C4.41937987 27.90884161 4.24098839 26.36066522 4.0625 24.8125 C3.93198242 23.65911133 3.93198242 23.65911133 3.79882812 22.48242188 C3.54817478 20.31937636 3.27495532 18.1600617 3 16 C2.89558594 15.03449219 2.79117188 14.06898437 2.68359375 13.07421875 C2.1983225 10.87287185 2.1983225 10.87287185 0.27656555 9.88311768 C-6.80171627 7.13733432 -15.93385036 9.18079467 -23.26171875 10.265625 C-24.20560959 10.39994934 -25.14950043 10.53427368 -26.12199402 10.67266846 C-35.70495606 12.05783725 -45.25499725 13.6421583 -54.80337524 15.24575806 C-76.22842927 18.83597507 -97.69343748 22.05095926 -119.20732117 25.05899048 C-122.90185068 25.57616791 -126.59576892 26.09763347 -130.28961182 26.61968994 C-132.11824783 26.87627631 -133.94732357 27.12974554 -135.77679443 27.38031006 C-138.47082915 27.74972022 -141.16318809 28.12976191 -143.85546875 28.51171875 C-144.6467366 28.61740677 -145.43800446 28.72309479 -146.25325012 28.83198547 C-157.378409 30.42793235 -157.378409 30.42793235 -166 37 C-167.47352629 39.94705258 -167.20359324 42.6552449 -167.28125 45.94140625 C-167.29965942 46.62428207 -167.31806885 47.3071579 -167.33703613 48.01072693 C-167.41581002 50.93692188 -167.48359985 53.8633476 -167.55224609 56.78979492 C-167.60386152 58.92378516 -167.66114393 61.05757072 -167.71875 63.19140625 C-167.74904297 64.47217041 -167.77933594 65.75293457 -167.81054688 67.07250977 C-168 70 -168 70 -169 71 C-172.25843529 71.54080028 -175.52682882 71.96606118 -178.80078125 72.40234375 C-182.70060141 73.05534902 -182.70060141 73.05534902 -186 75 C-186.92252193 77.86711888 -186.92252193 77.86711888 -187.25 81.125 C-187.39953125 82.22070312 -187.5490625 83.31640625 -187.703125 84.4453125 C-187.80109375 85.28835937 -187.8990625 86.13140625 -188 87 C-188.73605469 87.08636719 -189.47210938 87.17273438 -190.23046875 87.26171875 C-196.5136543 88.16643107 -200.13051983 88.8406931 -204 94 C-205.41634833 96.83269666 -205.3463005 99.47466438 -205.5625 102.625 C-205.68818359 104.40777344 -205.68818359 104.40777344 -205.81640625 106.2265625 C-205.90728516 107.59941406 -205.90728516 107.59941406 -206 109 C-210.09338652 109.04939115 -214.18665798 109.08571501 -218.28027344 109.10986328 C-219.67320781 109.11992877 -221.06612102 109.13358234 -222.45898438 109.15087891 C-224.4595436 109.1751022 -226.46025615 109.18540814 -228.4609375 109.1953125 C-229.66540527 109.20578613 -230.86987305 109.21625977 -232.11083984 109.22705078 C-235 109 -235 109 -237 107 C-236.44444444 102.44444444 -236.44444444 102.44444444 -235 101 C-233.44051458 100.84313751 -231.87457332 100.74923361 -230.30859375 100.68359375 C-229.36435547 100.64169922 -228.42011719 100.59980469 -227.44726562 100.55664062 C-226.45404297 100.51732422 -225.46082031 100.47800781 -224.4375 100.4375 C-223.44041016 100.39431641 -222.44332031 100.35113281 -221.41601562 100.30664062 C-218.9441585 100.20019702 -216.4721969 100.09818072 -214 100 C-213.86980469 98.74574219 -213.73960937 97.49148437 -213.60546875 96.19921875 C-213.00769586 90.44047597 -210.25298375 87.19850619 -206.125 83.25 C-203 81 -203 81 -199.8125 80.125 C-196.66278094 79.24869166 -196.66278094 79.24869166 -195.625 75.8125 C-195.30015625 74.88824219 -195.30015625 74.88824219 -194.96875 73.9453125 C-192.63249113 69.25395397 -187.83648299 65.98230485 -183.3125 63.5625 C-180.79740528 62.9507202 -178.57905298 62.96150667 -176 63 C-176.02094727 62.21351074 -176.04189453 61.42702148 -176.06347656 60.61669922 C-176.14687753 57.03626402 -176.19873776 53.45603358 -176.25 49.875 C-176.28351563 48.6375 -176.31703125 47.4 -176.3515625 46.125 C-176.44075713 37.82989909 -175.96417234 34.15040863 -170.25390625 28.171875 C-169.69574219 27.70265625 -169.13757813 27.2334375 -168.5625 26.75 C-168.00691406 26.27046875 -167.45132813 25.7909375 -166.87890625 25.296875 C-163.14276398 22.71808242 -159.35530048 21.75088642 -154.88671875 21.2890625 C-153.89824951 21.18078125 -152.90978027 21.0725 -151.89135742 20.9609375 C-150.83408447 20.85007812 -149.77681152 20.73921875 -148.6875 20.625 C-139.07380532 19.54769388 -129.55277022 18.20200441 -120.02416992 16.53369141 C-114.0364302 15.4887201 -108.03987744 14.54842284 -102.02734375 13.66015625 C-93.81664094 12.444584 -85.62168213 11.14422933 -77.4296875 9.80859375 C-76.24613174 9.61609039 -75.06257599 9.42358704 -73.84315491 9.22525024 C-68.95667023 8.43000587 -64.07034476 7.63387694 -59.18505859 6.83129883 C-34.05235302 2.70710302 -34.05235302 2.70710302 -22.15621948 1.57286072 C-2.75098163 -0.3034588 -2.75098163 -0.3034588 0 0 Z " fill="#DA4B79" transform="translate(293,22)"/>
<path d="M0 0 C1.17086655 -0.00021904 1.17086655 -0.00021904 2.36538696 -0.0004425 C4.95178991 0.00025553 7.53812131 0.00804282 10.12451172 0.01586914 C11.91527263 0.01773371 13.70603405 0.01915743 15.49679565 0.02015686 C20.21504113 0.02397898 24.93325592 0.03380668 29.65148926 0.04486084 C34.46410711 0.05508151 39.2767299 0.05965589 44.08935547 0.06469727 C53.53598355 0.07542921 62.98258883 0.09250199 72.42919922 0.11352539 C71.33529711 1.84630996 70.23955632 3.57793384 69.14306641 5.30908203 C68.2280838 6.75571983 68.2280838 6.75571983 67.2946167 8.23158264 C64.56711955 12.44537966 61.64360058 16.50200189 58.67919922 20.55102539 C58.11587891 21.32639648 57.55255859 22.10176758 56.97216797 22.90063477 C52.68499467 28.79423116 52.68499467 28.79423116 50.76416016 31.19189453 C49.06017026 33.64473002 49.11293366 35.18806893 49.42919922 38.11352539 C51.1122059 39.79653208 53.24928649 39.34161616 55.55810547 39.42993164 C57.10981445 39.49277344 57.10981445 39.49277344 58.69287109 39.55688477 C59.78148437 39.59620117 60.87009766 39.63551758 61.99169922 39.67602539 C63.08417969 39.71920898 64.17666016 39.76239258 65.30224609 39.80688477 C68.01109486 39.91334607 70.72003914 40.01536056 73.42919922 40.11352539 C70.35300545 43.29880405 67.30373381 46.07404256 63.67919922 48.61352539 C58.74133467 52.13582446 53.91985965 55.78493544 49.11669922 59.48852539 C42.28805233 64.73797722 35.35374147 69.79997739 28.3203125 74.76977539 C24.67329224 77.36120316 21.05329103 79.99018101 17.42919922 82.61352539 C11.33042876 87.02569041 5.22187976 91.42321508 -0.92163086 95.77294922 C-4.72516054 98.47475907 -8.4171033 101.28642613 -12.02001953 104.25024414 C-12.53177734 104.53512695 -13.04353516 104.82000977 -13.57080078 105.11352539 C-14.56080078 104.78352539 -15.55080078 104.45352539 -16.57080078 104.11352539 C-15.93302273 100.23260264 -14.07762948 97.60258688 -11.88720703 94.37915039 C-11.32982597 93.55248619 -11.32982597 93.55248619 -10.76118469 92.7091217 C-9.96696805 91.53203506 -9.17025673 90.35662846 -8.37127686 89.18276978 C-6.3045857 86.14570278 -4.25626469 83.09630915 -2.20751953 80.04711914 C-1.80466736 79.44832443 -1.40181519 78.84952972 -0.98675537 78.23258972 C3.66527569 71.3011778 8.06211623 64.22764445 12.42919922 57.11352539 C6.48919922 56.78352539 0.54919922 56.45352539 -5.57080078 56.11352539 C-4.59631049 52.21556421 -3.61663851 50.41888891 -1.38330078 47.17602539 C-0.325625 45.62334961 -0.325625 45.62334961 0.75341797 44.03930664 C1.16382324 43.43940918 1.57422852 42.83951172 1.99707031 42.22143555 C5.00723601 37.79085754 7.9619186 33.32288142 10.92919922 28.86352539 C12.16860132 27.00402958 13.40817103 25.14464547 14.64794922 23.28540039 C15.45135742 22.08028809 15.45135742 22.08028809 16.27099609 20.85083008 C16.65320313 20.27751953 17.03541016 19.70420898 17.42919922 19.11352539 C16.66776611 19.10417969 15.90633301 19.09483398 15.12182617 19.08520508 C11.66113302 19.03141602 8.20177904 18.94778355 4.74169922 18.86352539 C3.54351562 18.8493457 2.34533203 18.83516602 1.11083984 18.82055664 C-0.62456055 18.7722168 -0.62456055 18.7722168 -2.39501953 18.72290039 C-3.98963013 18.69147949 -3.98963013 18.69147949 -5.61645508 18.65942383 C-9.23923657 17.99001308 -10.93625257 16.63961828 -13.57080078 14.11352539 C-15.01510933 11.2249083 -14.94768584 9.31704838 -14.57080078 6.11352539 C-9.87954356 0.55808921 -6.95659781 -0.03375888 0 0 Z " fill="#DD396B" transform="translate(73.57080078125,171.886474609375)"/>
<path d="M0 0 C1 1 1 1 1.09765625 4.81640625 C1.09098089 6.39846682 1.07901875 7.98051159 1.0625 9.5625 C1.05798828 10.36880859 1.05347656 11.17511719 1.04882812 12.00585938 C1.03700518 14.00393756 1.01906914 16.00197783 1 18 C0.25753021 18.01030746 -0.48493958 18.02061493 -1.24990845 18.03123474 C-20.46800637 18.29917172 -39.68564327 18.59015357 -58.90306568 18.90279007 C-63.19361977 18.97217608 -67.48421503 19.03662418 -71.77490234 19.09716797 C-76.332318 19.16193573 -80.88927093 19.23937157 -85.44622803 19.33084106 C-87.01323923 19.36008434 -88.58035294 19.38430287 -90.14752197 19.40328979 C-92.27204088 19.42985854 -94.39543655 19.47414207 -96.51953125 19.5234375 C-98.23813354 19.5531665 -98.23813354 19.5531665 -99.99145508 19.58349609 C-104.28673978 20.17813666 -106.79802053 21.75203776 -109.78051758 24.84863281 C-111.28904021 27.50991438 -111.4270047 29.37216936 -111.51171875 32.421875 C-111.56138794 33.80777832 -111.56138794 33.80777832 -111.61206055 35.22167969 C-111.64940308 36.96819824 -111.64940308 36.96819824 -111.6875 38.75 C-111.790625 42.4625 -111.89375 46.175 -112 50 C-125.2 50 -138.4 50 -152 50 C-153.97457289 44.07628133 -154.36617616 39.90536363 -154.375 33.8125 C-154.39949219 32.91080078 -154.42398438 32.00910156 -154.44921875 31.08007812 C-154.47787239 24.66643825 -154.47787239 24.66643825 -152.5546875 21.984375 C-148.69474523 20.4970578 -144.83998592 19.96267478 -140.75 19.4375 C-139.8626416 19.31383057 -138.9752832 19.19016113 -138.06103516 19.06274414 C-131.30960123 18.13307616 -124.54473262 17.29847823 -117.7734375 16.52734375 C-114.92435488 16.12918003 -112.17912325 15.6465098 -109.3684082 15.06176758 C-104.37466167 14.05252831 -99.37033223 13.23485121 -94.33203125 12.484375 C-93.43034714 12.34801132 -92.52866302 12.21164764 -91.59965515 12.07115173 C-88.67092046 11.62863625 -85.74171428 11.18932849 -82.8125 10.75 C-79.72829449 10.28478171 -76.64421784 9.81871578 -73.56015015 9.35258484 C-71.46532111 9.03600575 -69.3704519 8.71969237 -67.27554321 8.40364075 C-60.44627911 7.37270249 -53.61883769 6.33052114 -46.79296875 5.27734375 C-45.91405472 5.14174042 -45.03514069 5.00613708 -44.1295929 4.86642456 C-40.78587937 4.35018276 -37.44224227 3.83345337 -34.0987854 3.31555176 C-29.73759169 2.64013329 -25.37550576 1.97118916 -21.01220703 1.30950928 C-19.00009873 1.00001519 -16.99032102 0.67779017 -14.98046875 0.35400391 C-13.11841797 0.06468994 -13.11841797 0.06468994 -11.21875 -0.23046875 C-10.13529297 -0.40344482 -9.05183594 -0.5764209 -7.93554688 -0.75463867 C-5.01252144 -0.99895342 -2.81360427 -0.79029922 0 0 Z " fill="#D03360" transform="translate(288,40)"/>
<path d="M0 0 C0.07734375 0.91265625 0.07734375 0.91265625 0.15625 1.84375 C2.06495684 16.59284828 10.54186272 30.80571893 21.875 40.25 C36.36777335 51.27854008 51.44147314 54.48757075 69.4921875 52.76171875 C77.13113573 51.52195502 84.01625179 48.20004601 91 45 C91 45.66 91 46.32 91 47 C108.82 47 126.64 47 145 47 C145.99 51.95 145.99 51.95 147 57 C143.96823011 60.03176989 140.49804121 59.3084598 136.42871094 59.31884766 C135.5349472 59.32889045 134.64118345 59.33893324 133.72033596 59.34928036 C130.72502219 59.38042583 127.72980119 59.39728459 124.734375 59.4140625 C122.61655471 59.43287853 120.49874146 59.45250202 118.38093567 59.47288513 C112.68346404 59.52501218 106.9859691 59.56441405 101.28837967 59.60109329 C96.58986889 59.63283831 91.8914303 59.67186157 87.19297504 59.71086216 C48.79552296 60.02777749 10.39850051 60.13153747 -28 60 C-28 59.34 -28 58.68 -28 58 C-26.01701905 56.26756518 -24.02729357 54.65777916 -21.9375 53.0625 C-21.31713867 52.58103516 -20.69677734 52.09957031 -20.05761719 51.60351562 C-14.72560324 47.49047635 -9.29331843 43.51293829 -3.80053711 39.61743164 C-0.93640393 37.55952173 1.02216646 35.96675031 3 33 C3.5 30.5 3.5 30.5 3 28 C0.51058732 25.2212772 -1.75651517 24.7666179 -5.328125 24.48828125 C-6.96818349 24.41553672 -8.6089424 24.35737267 -10.25 24.3125 C-11.51070312 24.26125977 -11.51070312 24.26125977 -12.796875 24.20898438 C-14.86412204 24.12676432 -16.93203874 24.06169843 -19 24 C-16.75157531 19.2262146 -13.64377765 15.13827596 -10.5625 10.875 C-9.97662109 10.05128906 -9.39074219 9.22757813 -8.78710938 8.37890625 C-8.21927734 7.59128906 -7.65144531 6.80367187 -7.06640625 5.9921875 C-6.2921228 4.91493408 -6.2921228 4.91493408 -5.50219727 3.81591797 C-2.34552299 0 -2.34552299 0 0 0 Z " fill="#B42C4F" transform="translate(153,180)"/>
<path d="M0 0 C0.71800781 0.38414062 1.43601562 0.76828125 2.17578125 1.1640625 C4.22424514 2.33347684 6.09905675 3.60417555 8 5 C9.09248047 5.79277344 9.09248047 5.79277344 10.20703125 6.6015625 C18.09645915 12.91848092 25.24040014 23.1460684 26.82421875 33.3359375 C27.98752789 50.96653385 26.13228919 63.38244402 15.8125 78.125 C8.33690244 86.52909535 -2.94769022 93.14827279 -14.125 94.8125 C-15.40375 94.874375 -16.6825 94.93625 -18 95 C-18.74378906 95.05027344 -19.48757812 95.10054688 -20.25390625 95.15234375 C-34.74470753 95.73383658 -47.40876142 90.66543101 -58 81 C-69.06283584 69.34024855 -73.42858077 56.34736123 -73.43896484 40.5168457 C-73.04595428 26.85297842 -65.96553519 15.5762903 -56.375 6.25 C-41.46270205 -6.64959516 -17.26738357 -10.19705196 0 0 Z M-55.35546875 17.6484375 C-63.71169743 28.51610103 -65.15326738 38.56861353 -64 52 C-62.86156576 58.86590573 -60.06949723 64.41028828 -56 70 C-55.59265625 70.59554687 -55.1853125 71.19109375 -54.765625 71.8046875 C-49.2444157 79.11217039 -40.87394025 83.78733808 -31.9375 85.4375 C-29.96197659 85.66013023 -27.98228125 85.84894381 -26 86 C-24.67742187 86.15662109 -24.67742187 86.15662109 -23.328125 86.31640625 C-12.80219921 87.04823837 -2.43854303 82.53065818 5.5 75.8125 C14.61868719 66.76980187 18.88794727 57.81259507 19.3125 45.125 C19.11920039 35.62915661 16.67269546 27.61761961 11 20 C10.56945312 19.39414063 10.13890625 18.78828125 9.6953125 18.1640625 C3.46477675 10.10308687 -6.13726987 5.64108764 -15.875 3.3125 C-31.33590082 1.76640992 -44.78222703 5.76011597 -55.35546875 17.6484375 Z " fill="#E98D9C" transform="translate(235,132)"/>
<path d="M0 0 C0.97498947 -0.02882263 1.94997894 -0.05764526 2.95451355 -0.08734131 C4.00762222 -0.10009094 5.0607309 -0.11284058 6.14575195 -0.12597656 C7.23233597 -0.14307678 8.31891998 -0.160177 9.43843079 -0.17779541 C11.74076574 -0.20615114 14.04322256 -0.22574976 16.34570312 -0.23730469 C19.85481016 -0.2663596 23.3585918 -0.35935446 26.86645508 -0.45410156 C29.10535612 -0.47369982 31.34429482 -0.48944806 33.58325195 -0.50097656 C34.62623947 -0.53801697 35.66922699 -0.57505737 36.74382019 -0.61322021 C41.22367316 -0.57251022 44.06738237 -0.43460482 47.61856079 2.45251465 C49.64821375 4.712226 51.45212072 6.99924799 53.1965332 9.48339844 C56.00023782 13.16826736 57.95944357 15.52787152 62.1965332 17.48339844 C65.51073712 17.8979132 68.79797968 17.85300729 72.1340332 17.81933594 C74.10018236 17.83184456 76.06632822 17.84488151 78.0324707 17.85839844 C81.1201541 17.86233305 84.20751328 17.85834653 87.29516602 17.84375 C90.28361282 17.83518166 93.27070562 17.8568536 96.2590332 17.88183594 C97.64046509 17.86182022 97.64046509 17.86182022 99.04980469 17.84140015 C103.6644263 17.89457217 105.55508177 17.96431841 109.25512695 20.95849609 C109.89579102 21.79171387 110.53645508 22.62493164 111.1965332 23.48339844 C111.5265332 23.81339844 111.8565332 24.14339844 112.1965332 24.48339844 C112.41849266 27.42956348 112.57781428 30.35665712 112.6965332 33.30761719 C112.73686676 34.22427155 112.77720032 35.1409259 112.8187561 36.08535767 C112.95007143 39.11366868 113.07374497 42.14223044 113.1965332 45.17089844 C113.23977722 46.20459564 113.28302124 47.23829285 113.32757568 48.30331421 C114.10859572 66.9765474 114.75212272 85.65113646 115.11303711 104.33740234 C115.16531639 107.03807927 115.22920921 109.73763041 115.29956055 112.43798828 C115.38985614 115.95309957 115.45408632 119.46758275 115.5090332 122.98339844 C115.55374756 124.47867065 115.55374756 124.47867065 115.59936523 126.00415039 C115.64741612 131.78405803 115.12034719 135.11551645 111.1965332 139.48339844 C110.5365332 139.48339844 109.8765332 139.48339844 109.1965332 139.48339844 C108.29369523 136.77488452 108.01987656 134.94177114 107.89770508 132.13667297 C107.85834839 131.26522487 107.8189917 130.39377676 107.77844238 129.49592113 C107.74109985 128.55504304 107.70375732 127.61416494 107.6652832 126.64477539 C107.60298523 125.17216861 107.60298523 125.17216861 107.53942871 123.6698122 C107.16072076 114.35074732 106.93116717 105.03020605 106.75097656 95.70546532 C106.69474247 92.80913566 106.63458642 89.91290876 106.57348633 87.01667786 C106.40080019 78.80297371 106.23443047 70.58914794 106.0715332 62.37524414 C105.97072381 57.30534775 105.86524044 52.23556619 105.75683594 47.1658268 C105.71671993 45.24363255 105.6784632 43.32139858 105.64208984 41.39912987 C105.59170028 38.73854979 105.53542985 36.07815585 105.4777832 33.41772461 C105.46424805 32.62366714 105.45071289 31.82960968 105.43676758 31.01148987 C105.67578324 27.45000429 105.67578324 27.45000429 104.1965332 24.48339844 C101.21252966 24.38474105 98.24747093 24.34624872 95.26293945 24.34277344 C93.39769306 24.3244259 91.53245839 24.30485384 89.66723633 24.28417969 C86.72473702 24.255358 83.78298104 24.23340244 80.84033203 24.23291016 C58.84724249 24.20684538 58.84724249 24.20684538 49.7590332 16.38574219 C49.2434082 15.73734375 48.7277832 15.08894531 48.1965332 14.42089844 C47.3921582 13.44443359 47.3921582 13.44443359 46.5715332 12.44824219 C45.1965332 10.48339844 45.1965332 10.48339844 43.1965332 6.48339844 C27.3565332 6.15339844 11.5165332 5.82339844 -4.8034668 5.48339844 C-5.4634668 8.78339844 -6.1234668 12.08339844 -6.8034668 15.48339844 C-8.27612305 18.39355469 -8.27612305 18.39355469 -9.8659668 20.54589844 C-10.39319336 21.279375 -10.92041992 22.01285156 -11.46362305 22.76855469 C-12.8034668 24.48339844 -12.8034668 24.48339844 -13.8034668 25.48339844 C-16.10400515 25.57783179 -18.40748853 25.60081972 -20.70996094 25.59692383 C-21.43187119 25.59706985 -22.15378143 25.59721588 -22.89756775 25.59736633 C-25.29461627 25.59666712 -27.69158802 25.58887439 -30.08862305 25.58105469 C-31.74629168 25.57919054 -33.40396087 25.57776662 -35.06163025 25.57676697 C-39.43300894 25.57294156 -43.80435461 25.56311109 -48.17572021 25.55206299 C-52.63301141 25.54184935 -57.09030791 25.53726945 -61.54760742 25.53222656 C-70.29957573 25.52148884 -79.05151716 25.50441215 -87.8034668 25.48339844 C-87.1434668 24.16339844 -86.4834668 22.84339844 -85.8034668 21.48339844 C-51.6484668 20.98839844 -51.6484668 20.98839844 -16.8034668 20.48339844 C-13.8334668 14.87339844 -10.8634668 9.26339844 -7.8034668 3.48339844 C-4.53821558 0.21814722 -4.27968569 0.10223896 0 0 Z " fill="#D96584" transform="translate(189.803466796875,96.5166015625)"/>
<path d="M0 0 C2.93804996 -0.08086376 5.87388075 -0.1404283 8.8125 -0.1875 C9.64587891 -0.21263672 10.47925781 -0.23777344 11.33789062 -0.26367188 C12.54155273 -0.27817383 12.54155273 -0.27817383 13.76953125 -0.29296875 C14.87711792 -0.31653442 14.87711792 -0.31653442 16.00708008 -0.34057617 C18.57624045 0.09847549 19.43950851 0.94659424 21 3 C21.36328125 5.78515625 21.36328125 5.78515625 21.3125 9.0625 C21.30863281 10.12597656 21.30476563 11.18945312 21.30078125 12.28515625 C20.99251904 16.09239467 20.31186213 19.66145328 19.52368164 23.3918457 C18.68092599 27.58912246 18.13374328 31.82126921 17.5625 36.0625 C16.57898888 43.14976719 15.48524411 50.19696628 14.19995117 57.23535156 C12.79083187 65.01068692 11.57728982 72.81704975 10.35766602 80.62402344 C10.19580811 81.65172852 10.0339502 82.67943359 9.8671875 83.73828125 C9.72394043 84.65649658 9.58069336 85.57471191 9.43310547 86.52075195 C9.05245967 88.6997024 8.53647632 90.85409473 8 93 C4.7 93 1.4 93 -2 93 C-2.19111187 58.32054531 -2.19111187 58.32054531 -1.42822266 45.34033203 C-0.8929531 35.96278507 -0.68013135 26.57625892 -0.4375 17.1875 C-0.41535431 16.33657776 -0.39320862 15.48565552 -0.37039185 14.60894775 C-0.24402481 9.73936905 -0.12070484 4.86972221 0 0 Z " fill="#D43968" transform="translate(342,94)"/>
<path d="M0 0 C0.78101578 -0.00043808 1.56203156 -0.00087616 2.36671448 -0.00132751 C4.93703591 0.00075525 7.50669743 0.02406163 10.0769043 0.04760742 C11.86337426 0.05320521 13.64984885 0.05747444 15.43632507 0.06047058 C20.12998246 0.07190498 24.82335974 0.10136005 29.51690674 0.13458252 C34.30965384 0.16531371 39.10244636 0.17898243 43.89526367 0.1940918 C53.29317295 0.22623111 62.69087467 0.27741047 72.08862305 0.34057617 C70.99472094 2.07336074 69.89898015 3.80498462 68.80249023 5.53613281 C67.88750763 6.98277061 67.88750763 6.98277061 66.95404053 8.45863342 C64.22654338 12.67243044 61.30302441 16.72905267 58.33862305 20.77807617 C57.77530273 21.55344727 57.21198242 22.32881836 56.6315918 23.12768555 C52.3444185 29.02128194 52.3444185 29.02128194 50.42358398 31.41894531 C48.71959409 33.8717808 48.77235748 35.41511972 49.08862305 38.34057617 C50.77162973 40.02358286 52.90871032 39.56866694 55.2175293 39.65698242 C56.76923828 39.71982422 56.76923828 39.71982422 58.35229492 39.78393555 C59.4409082 39.82325195 60.52952148 39.86256836 61.65112305 39.90307617 C62.74360352 39.94625977 63.83608398 39.98944336 64.96166992 40.03393555 C67.67051868 40.14039685 70.37946297 40.24241134 73.08862305 40.34057617 C70.01242928 43.52585483 66.96315763 46.30109334 63.33862305 48.84057617 C58.40076876 52.36286793 53.57907284 56.01172051 48.77612305 59.71557617 C42.26327599 64.72724796 35.66006717 69.5818414 28.9440918 74.31713867 C27.21109981 75.54516856 25.49833523 76.80342707 23.8269043 78.11401367 C22.08862305 79.34057617 22.08862305 79.34057617 20.08862305 79.34057617 C21.57460197 75.7063886 23.53285351 73.88944275 26.58862305 71.46557617 C27.56444336 70.68827148 28.54026367 69.9109668 29.5456543 69.11010742 C30.72592633 68.18601314 31.90698755 67.26292637 33.08862305 66.34057617 C33.79809082 65.78418457 34.50755859 65.22779297 35.23852539 64.65454102 C40.50437968 60.52706848 45.78431445 56.41851042 51.08862305 52.34057617 C51.83450684 51.75969238 52.58039063 51.17880859 53.34887695 50.58032227 C54.06350098 50.03069824 54.778125 49.48107422 55.5144043 48.91479492 C56.15418213 48.41939209 56.79395996 47.92398926 57.453125 47.41357422 C59.08862305 46.34057617 59.08862305 46.34057617 61.08862305 46.34057617 C61.08862305 45.68057617 61.08862305 45.02057617 61.08862305 44.34057617 C50.19862305 44.34057617 39.30862305 44.34057617 28.08862305 44.34057617 C29.13056195 39.13088167 30.75936485 36.92351214 34.15112305 33.15307617 C35.15737544 32.00034089 36.16257537 30.84668609 37.16674805 29.69213867 C37.66368164 29.12527344 38.16061523 28.5584082 38.67260742 27.97436523 C40.64003215 25.70436415 42.5264832 23.375009 44.40112305 21.02807617 C44.97475586 20.31006836 45.54838867 19.59206055 46.1394043 18.85229492 C48.83270927 15.38176367 51.45282101 11.85497889 54.08862305 8.34057617 C20.42862305 7.84557617 20.42862305 7.84557617 -13.91137695 7.34057617 C-12.91137695 3.34057617 -12.91137695 3.34057617 -10.84333801 1.61186218 C-7.17107097 0.01958261 -3.92800794 -0.05803016 0 0 Z " fill="#E88591" transform="translate(73.911376953125,171.659423828125)"/>
<path d="M0 0 C0.73154297 0.00451172 1.46308594 0.00902344 2.21679688 0.01367188 C3.99873419 0.02531852 5.78062863 0.04324809 7.5625 0.0625 C7.5625 4.3525 7.5625 8.6425 7.5625 13.0625 C-38.89806948 15.25946587 -38.89806948 15.25946587 -59.8125 15.3125 C-60.50818085 15.31749512 -61.20386169 15.32249023 -61.92062378 15.32763672 C-63.85069381 15.33918555 -65.78084234 15.33415615 -67.7109375 15.328125 C-69.31074463 15.32474121 -69.31074463 15.32474121 -70.94287109 15.32128906 C-73.4375 15.0625 -73.4375 15.0625 -75.4375 13.0625 C-75.6875 10.5625 -75.6875 10.5625 -75.4375 8.0625 C-72.72520875 5.35020875 -70.95442324 5.61545561 -67.15625 5.28125 C-65.85099365 5.16249512 -64.5457373 5.04374023 -63.20092773 4.92138672 C-61.77980624 4.80150756 -60.35866315 4.68188422 -58.9375 4.5625 C-57.49090935 4.43440358 -56.04437634 4.3056547 -54.59790039 4.17626953 C-44.29795516 3.26490672 -33.98967588 2.44569113 -23.67578125 1.70898438 C-19.66858216 1.41864554 -15.7255246 1.10552062 -11.75 0.51171875 C-7.80247794 -0.02361738 -3.97629303 -0.04729351 0 0 Z " fill="#DE4A79" transform="translate(81.4375,143.9375)"/>
<path d="M0 0 C3.63 0.66 7.26 1.32 11 2 C11.02505615 2.79172607 11.0501123 3.58345215 11.07592773 4.39916992 C11.19215729 7.99543363 11.31476176 11.5914528 11.4375 15.1875 C11.47681641 16.43337891 11.51613281 17.67925781 11.55664062 18.96289062 C11.61948242 20.7659668 11.61948242 20.7659668 11.68359375 22.60546875 C11.72025146 23.71043701 11.75690918 24.81540527 11.79467773 25.95385742 C11.98152656 28.72592972 12.38162366 31.29542873 13 34 C13.66 34 14.32 34 15 34 C15.33 34.66 15.66 35.32 16 36 C30.19 36.33 44.38 36.66 59 37 C58.67 38.65 58.34 40.3 58 42 C39.52 42 21.04 42 2 42 C0.64862559 31.86469196 -0.2705399 22.65513226 -0.125 12.5625 C-0.11597656 11.34240234 -0.10695313 10.12230469 -0.09765625 8.86523438 C-0.07447847 5.91006786 -0.03862752 2.95500495 0 0 Z " fill="#B82E52" transform="translate(97,121)"/>
<path d="M0 0 C3.69220438 1.39286752 6.39802764 3.30396946 9 6.3125 C10.38653523 10.03881343 10.07191033 12.18131944 9 16 C7.13291808 18.90796382 5.14458209 21.42770895 2 23 C0.37834248 23.12148305 -1.24884327 23.17543652 -2.875 23.1875 C-4.17050781 23.20876953 -4.17050781 23.20876953 -5.4921875 23.23046875 C-8.19690016 22.98190481 -9.73057557 22.47245311 -12 21 C-14.73562901 17.30320405 -16.38420294 14.59578331 -16.1875 9.9375 C-15.38287486 5.80977303 -13.34467513 3.5532231 -10.02734375 1.0703125 C-6.59190102 -0.74338944 -3.75390803 -0.86288259 0 0 Z " fill="#EFF0F2" transform="translate(226,150)"/>
<path d="M0 0 C4.95 0 9.9 0 15 0 C15 8.25 15 16.5 15 25 C10.05 25 5.1 25 0 25 C0 16.75 0 8.5 0 0 Z " fill="#DC3F6E" transform="translate(314,201)"/>
<path d="M0 0 C-4.67557252 4.80916031 -4.67557252 4.80916031 -7.65625 6.5625 C-10.69441107 9.72218752 -10.51999058 11.61321959 -10.45043945 15.85449219 C-10.40491943 16.81000977 -10.35939941 17.76552734 -10.3125 18.75 C-10.209375 21.8025 -10.10625 24.855 -10 28 C5.84 28.495 5.84 28.495 22 29 C22 29.33 22 29.66 22 30 C8.8 30 -4.4 30 -18 30 C-19.97457289 24.07628133 -20.36617616 19.90536363 -20.375 13.8125 C-20.39949219 12.91080078 -20.42398438 12.00910156 -20.44921875 11.08007812 C-20.4782121 4.5903993 -20.4782121 4.5903993 -18.3515625 1.96484375 C-15.55891306 0.81902247 -12.98525681 0.21271481 -10 -0.25 C-8.96875 -0.42015625 -7.9375 -0.5903125 -6.875 -0.765625 C-4.22605319 -0.98157175 -2.49230232 -0.83875559 0 0 Z " fill="#B42E53" transform="translate(154,60)"/>
<path d="M0 0 C1.02574883 0.00424484 1.02574883 0.00424484 2.07221985 0.00857544 C4.2527529 0.01975566 6.4328727 0.04485559 8.61328125 0.0703125 C10.09309302 0.08034512 11.57291124 0.08947048 13.05273438 0.09765625 C16.67721725 0.11968769 20.30145891 0.15420248 23.92578125 0.1953125 C23.92578125 2.8353125 23.92578125 5.4753125 23.92578125 8.1953125 C12.37578125 8.1953125 0.82578125 8.1953125 -11.07421875 8.1953125 C-10.74421875 6.2153125 -10.41421875 4.2353125 -10.07421875 2.1953125 C-6.34881213 -0.28829191 -4.44358902 -0.0362742 0 0 Z " fill="#CE506C" transform="translate(131.07421875,99.8046875)"/>
<path d="M0 0 C1.20269531 -0.00257813 2.40539062 -0.00515625 3.64453125 -0.0078125 C4.90652344 -0.00007812 6.16851562 0.00765625 7.46875 0.015625 C8.73074219 0.00789062 9.99273437 0.00015625 11.29296875 -0.0078125 C12.49566406 -0.00523437 13.69835937 -0.00265625 14.9375 0 C16.04544922 0.00225586 17.15339844 0.00451172 18.29492188 0.00683594 C20.96875 0.265625 20.96875 0.265625 22.96875 2.265625 C23.21875 4.765625 23.21875 4.765625 22.96875 7.265625 C20.24640398 9.98797102 18.74112127 9.52350557 14.9375 9.53125 C13.73480469 9.53382813 12.53210938 9.53640625 11.29296875 9.5390625 C10.03097656 9.53132812 8.76898437 9.52359375 7.46875 9.515625 C6.20675781 9.52335938 4.94476563 9.53109375 3.64453125 9.5390625 C2.44183594 9.53648437 1.23914063 9.53390625 0 9.53125 C-1.10794922 9.52899414 -2.21589844 9.52673828 -3.35742188 9.52441406 C-6.03125 9.265625 -6.03125 9.265625 -8.03125 7.265625 C-8.28125 4.765625 -8.28125 4.765625 -8.03125 2.265625 C-5.30890398 -0.45672102 -3.80362127 0.00774443 0 0 Z " fill="#E2748D" transform="translate(22.03125,231.734375)"/>
<path d="M0 0 C2.90772757 1.3451102 3.87431479 2.42680211 6 5 C6.75 8 6.75 8 6 11 C3.290949 14.27937752 1.68183598 15.67209487 -2.484375 16.484375 C-6.79364181 16.71386258 -9.17174993 16.65076791 -12.625 13.9375 C-14.33923762 10.27526509 -14.58184511 8.0001851 -14 4 C-10.98553334 -1.34382726 -5.46888312 -0.98887038 0 0 Z " fill="#F6EFF2" transform="translate(286,125)"/>
<path d="M0 0 C7.59 0 15.18 0 23 0 C19.63070709 3.36929291 17.0213903 5.85762463 13.25 8.5 C8.31214571 12.02229175 3.4904498 15.67114433 -1.3125 19.375 C-7.82534705 24.38667179 -14.42855588 29.24126523 -21.14453125 33.9765625 C-22.87752324 35.20459239 -24.59028781 36.46285089 -26.26171875 37.7734375 C-28 39 -28 39 -30 39 C-28.51402108 35.36581243 -26.55576954 33.54886658 -23.5 31.125 C-22.03626953 29.95904297 -22.03626953 29.95904297 -20.54296875 28.76953125 C-19.36269671 27.84543697 -18.18163549 26.9223502 -17 26 C-16.29053223 25.4436084 -15.58106445 24.8872168 -14.85009766 24.31396484 C-9.58424336 20.1864923 -4.3043086 16.07793425 1 12 C1.74588379 11.41911621 2.49176758 10.83823242 3.26025391 10.23974609 C4.33218994 9.41531006 4.33218994 9.41531006 5.42578125 8.57421875 C6.06555908 8.07881592 6.70533691 7.58341309 7.36450195 7.07299805 C9 6 9 6 11 6 C11 5.34 11 4.68 11 4 C10.01 3.67 9.02 3.34 8 3 C8.33 2.34 8.66 1.68 9 1 C6.03 1 3.06 1 0 1 C0 0.67 0 0.34 0 0 Z " fill="#E07F89" transform="translate(124,212)"/>
<path d="M0 0 C1.11697266 -0.00128906 2.23394531 -0.00257812 3.38476562 -0.00390625 C4.55587891 -0.00003906 5.72699219 0.00382812 6.93359375 0.0078125 C8.10857422 0.00394531 9.28355469 0.00007813 10.49414062 -0.00390625 C12.16766602 -0.00197266 12.16766602 -0.00197266 13.875 0 C14.90439697 0.00112793 15.93379395 0.00225586 16.99438477 0.00341797 C19.37109375 0.1328125 19.37109375 0.1328125 20.37109375 1.1328125 C20.55859375 3.5703125 20.55859375 3.5703125 20.37109375 6.1328125 C18.37109375 8.1328125 18.37109375 8.1328125 15.86499023 8.37573242 C14.83446533 8.37162354 13.80394043 8.36751465 12.7421875 8.36328125 C11.62521484 8.36134766 10.50824219 8.35941406 9.35742188 8.35742188 C7.60075195 8.33905273 7.60075195 8.33905273 5.80859375 8.3203125 C4.63361328 8.31966797 3.45863281 8.31902344 2.24804688 8.31835938 C-6.48878484 8.27293391 -6.48878484 8.27293391 -7.62890625 7.1328125 C-7.66971408 5.13322886 -7.67144981 3.13235996 -7.62890625 1.1328125 C-4.98062446 -0.1913284 -2.96210513 0.00324208 0 0 Z " fill="#EB8D9A" transform="translate(58.62890625,87.8671875)"/>
<path d="M0 0 C1.61358398 -0.01836914 1.61358398 -0.01836914 3.25976562 -0.03710938 C4.28650391 -0.03904297 5.31324219 -0.04097656 6.37109375 -0.04296875 C7.79119751 -0.04913208 7.79119751 -0.04913208 9.23999023 -0.05541992 C11.5625 0.1875 11.5625 0.1875 13.5625 2.1875 C13.75 4.75 13.75 4.75 13.5625 7.1875 C11.02940278 9.72059722 4.03255092 8.37305171 0.625 8.375 C-0.49841797 8.38724609 -1.62183594 8.39949219 -2.77929688 8.41210938 C-3.85115234 8.41404297 -4.92300781 8.41597656 -6.02734375 8.41796875 C-7.51028931 8.42413208 -7.51028931 8.42413208 -9.02319336 8.43041992 C-11.4375 8.1875 -11.4375 8.1875 -13.4375 6.1875 C-12.42668918 -2.10114873 -7.15258778 0.0042702 0 0 Z " fill="#D73768" transform="translate(47.4375,201.8125)"/>
<path d="M0 0 C1.18797432 0.01061211 1.18797432 0.01061211 2.39994812 0.0214386 C4.91735264 0.04931881 7.43249231 0.11203925 9.94921875 0.17578125 C11.66077505 0.20087264 13.3723664 0.22368434 15.08398438 0.24414062 C19.26909529 0.29912378 23.45252371 0.38534707 27.63671875 0.48828125 C27.63671875 0.81828125 27.63671875 1.14828125 27.63671875 1.48828125 C24.99671875 1.48828125 22.35671875 1.48828125 19.63671875 1.48828125 C19.63671875 2.80828125 19.63671875 4.12828125 19.63671875 5.48828125 C22.60671875 5.48828125 25.57671875 5.48828125 28.63671875 5.48828125 C28.63671875 5.81828125 28.63671875 6.14828125 28.63671875 6.48828125 C23.94108457 6.51316842 19.24548956 6.53122921 14.54980469 6.54321289 C12.95539683 6.54821356 11.3609935 6.55501626 9.76660156 6.5637207 C7.46287921 6.57597455 5.15921797 6.58155235 2.85546875 6.5859375 C1.80184143 6.59367943 1.80184143 6.59367943 0.72692871 6.60157776 C-4.05049066 6.60210833 -8.63206819 6.15853643 -13.36328125 5.48828125 C-9.33602949 0.45856751 -6.16694217 -0.20895007 0 0 Z " fill="#812D3F" transform="translate(121.36328125,247.51171875)"/>
<path d="M0 0 C0.88494141 -0.01224609 1.76988281 -0.02449219 2.68164062 -0.03710938 C3.52791016 -0.03904297 4.37417969 -0.04097656 5.24609375 -0.04296875 C6.02525146 -0.04707764 6.80440918 -0.05118652 7.60717773 -0.05541992 C9.5625 0.1875 9.5625 0.1875 11.5625 2.1875 C11.19568342 5.12203261 10.69812754 6.05187246 8.5625 8.1875 C6.71484375 8.44628906 6.71484375 8.44628906 4.5 8.453125 C3.30503906 8.45699219 3.30503906 8.45699219 2.0859375 8.4609375 C1.25320312 8.45320312 0.42046875 8.44546875 -0.4375 8.4375 C-1.27023438 8.44523438 -2.10296875 8.45296875 -2.9609375 8.4609375 C-3.75757812 8.45835937 -4.55421875 8.45578125 -5.375 8.453125 C-6.10589844 8.45086914 -6.83679688 8.44861328 -7.58984375 8.44628906 C-9.4375 8.1875 -9.4375 8.1875 -11.4375 6.1875 C-10.50064873 -1.49468038 -6.73307155 0.00488258 0 0 Z " fill="#2A2131" transform="translate(127.4375,135.8125)"/>
<path d="M0 0 C0.94311035 0.00141495 1.8862207 0.0028299 2.85791016 0.00428772 C5.84280697 0.00984385 8.82762621 0.02238802 11.8125 0.03515625 C13.84765516 0.04017693 15.88281151 0.04473884 17.91796875 0.04882812 C22.88284197 0.05979888 27.84765787 0.07703286 32.8125 0.09765625 C32.8125 0.42765625 32.8125 0.75765625 32.8125 1.09765625 C22.2525 1.09765625 11.6925 1.09765625 0.8125 1.09765625 C0.8125 2.08765625 0.8125 3.07765625 0.8125 4.09765625 C13.3525 4.42765625 25.8925 4.75765625 38.8125 5.09765625 C38.8125 5.42765625 38.8125 5.75765625 38.8125 6.09765625 C32.14136577 6.12313778 25.47024424 6.14057815 18.79907227 6.15258789 C16.53246593 6.15759786 14.2658628 6.16440766 11.99926758 6.1730957 C8.7299724 6.18530797 5.46072018 6.19091807 2.19140625 6.1953125 C0.68617149 6.20305443 0.68617149 6.20305443 -0.84947205 6.21095276 C-6.71258433 6.21141391 -12.37236932 5.85569539 -18.1875 5.09765625 C-18.1875 3.77765625 -18.1875 2.45765625 -18.1875 1.09765625 C-12.07976537 0.2007379 -6.16795216 -0.03539997 0 0 Z " fill="#A75165" transform="translate(159.1875,247.90234375)"/>
<path d="M0 0 C0.78955078 -0.01224609 1.57910156 -0.02449219 2.39257812 -0.03710938 C4.45057435 -0.04237279 6.50812009 0.06543715 8.5625 0.1875 C9.2225 0.8475 9.8825 1.5075 10.5625 2.1875 C10.00694444 6.74305556 10.00694444 6.74305556 8.5625 8.1875 C5.90427343 8.31408222 3.28362576 8.37270214 0.625 8.375 C-0.11685547 8.38724609 -0.85871094 8.39949219 -1.62304688 8.41210938 C-3.56263629 8.41738478 -5.5017371 8.30938902 -7.4375 8.1875 C-9.4375 6.1875 -9.4375 6.1875 -9.625 3.625 C-9.21508164 -1.70393865 -4.24137141 0.00344547 0 0 Z " fill="#D63463" transform="translate(33.4375,175.8125)"/>
<path d="M0 0 C-0.99 0.33 -1.98 0.66 -3 1 C-2.690625 1.86625 -2.690625 1.86625 -2.375 2.75 C-2 5 -2 5 -4 9 C-4 12.3 -4 15.6 -4 19 C20.75 19.495 20.75 19.495 46 20 C46 20.33 46 20.66 46 21 C38.47030348 21.02526648 30.9406178 21.04283141 23.41088867 21.05493164 C20.84708243 21.0599737 18.28327909 21.06680714 15.71948242 21.07543945 C12.04344979 21.08751064 8.36745502 21.09322942 4.69140625 21.09765625 C3.53725723 21.10281754 2.38310822 21.10797882 1.19398499 21.11329651 C0.13296066 21.11337204 -0.92806366 21.11344757 -2.02124023 21.11352539 C-3.43021828 21.11685631 -3.43021828 21.11685631 -4.86766052 21.12025452 C-7 21 -7 21 -8 20 C-8.15354338 17.19488047 -8.23165776 14.43136329 -8.25 11.625 C-8.270625 10.84382813 -8.29125 10.06265625 -8.3125 9.2578125 C-8.35226346 3.45234698 -8.35226346 3.45234698 -6.64746094 1.26318359 C-4.39582954 -0.4632451 -2.7615845 -0.22391226 0 0 Z " fill="#8E2D4B" transform="translate(193,68)"/>
<path d="M0 0 C1.26714844 -0.01417969 2.53429688 -0.02835937 3.83984375 -0.04296875 C7.0625 0.1875 7.0625 0.1875 9.0625 2.1875 C8.50694444 6.74305556 8.50694444 6.74305556 7.0625 8.1875 C4.70936445 8.26021741 2.35416332 8.27120868 0 8.25 C-1.29035156 8.24097656 -2.58070312 8.23195313 -3.91015625 8.22265625 C-4.90917969 8.21105469 -5.90820312 8.19945313 -6.9375 8.1875 C-7.31813221 5.8614143 -7.65019945 3.52694736 -7.9375 1.1875 C-6.00408053 -0.74591947 -2.56270879 0.01300867 0 0 Z " fill="#E03B6A" transform="translate(14.9375,113.8125)"/>
<path d="M0 0 C1.21236328 0.02707031 1.21236328 0.02707031 2.44921875 0.0546875 C3.37154297 0.08949219 3.37154297 0.08949219 4.3125 0.125 C3.9825 1.445 3.6525 2.765 3.3125 4.125 C4.3025 4.455 5.2925 4.785 6.3125 5.125 C6.3125 5.785 6.3125 6.445 6.3125 7.125 C12.5825 7.125 18.8525 7.125 25.3125 7.125 C25.3125 4.815 25.3125 2.505 25.3125 0.125 C25.6425 0.125 25.9725 0.125 26.3125 0.125 C26.3125 2.765 26.3125 5.405 26.3125 8.125 C14.7625 8.125 3.2125 8.125 -8.6875 8.125 C-8.3575 6.145 -8.0275 4.165 -7.6875 2.125 C-4.48369983 -0.01086678 -3.66810033 -0.10632175 0 0 Z " fill="#AF425B" transform="translate(128.6875,99.875)"/>
<path d="M0 0 C1.32 0.33 2.64 0.66 4 1 C3.05504426 8.804031 0.67211283 15.32788717 -5 21 C-6.66617115 21.04063832 -8.33388095 21.042721 -10 21 C-9.52949219 20.07058594 -9.05898437 19.14117187 -8.57421875 18.18359375 C-7.94520318 16.9349509 -7.31630312 15.68624985 -6.6875 14.4375 C-6.37876953 13.82841797 -6.07003906 13.21933594 -5.75195312 12.59179688 C-3.6720933 8.45397049 -1.7871417 4.27264338 0 0 Z " fill="#DB547C" transform="translate(181,101)"/>
<path d="M0 0 C0.70125 0.00515625 1.4025 0.0103125 2.125 0.015625 C2.82625 0.01046875 3.5275 0.0053125 4.25 0 C6.125 0.265625 6.125 0.265625 8.125 2.265625 C8.3125 5.828125 8.3125 5.828125 8.125 9.265625 C6.53605928 10.85456572 4.87698576 10.43560911 2.6875 10.453125 C1.48287109 10.47439453 1.48287109 10.47439453 0.25390625 10.49609375 C-1.875 10.265625 -1.875 10.265625 -3.875 8.265625 C-4.125 5.265625 -4.125 5.265625 -3.875 2.265625 C-1.875 0.265625 -1.875 0.265625 0 0 Z " fill="#EC8E97" transform="translate(85.875,64.734375)"/>
<path d="M0 0 C4.875 0.875 4.875 0.875 6 2 C6.07330331 4.86469325 6.09217831 7.69893674 6.0625 10.5625 C6.041875 13.346875 6.02125 16.13125 6 19 C-3.57 19 -13.14 19 -23 19 C-23 18.67 -23 18.34 -23 18 C-14.09 17.67 -5.18 17.34 4 17 C3.34 12.71 2.68 8.42 2 4 C1.01 4 0.02 4 -1 4 C-0.67 2.68 -0.34 1.36 0 0 Z " fill="#9A2F4F" transform="translate(283,39)"/>
<path d="M0 0 C0.33 0 0.66 0 1 0 C1.08692074 4.27070558 1.14036515 8.54118458 1.1875 12.8125 C1.21263672 14.02744141 1.23777344 15.24238281 1.26367188 16.49414062 C1.27333984 17.65751953 1.28300781 18.82089844 1.29296875 20.01953125 C1.3086792 21.09307861 1.32438965 22.16662598 1.34057617 23.27270508 C1 26 1 26 -0.32226562 27.85546875 C-3.00840841 29.68792471 -5.50071955 29.28215684 -8.6875 29.1875 C-10.45673828 29.14689453 -10.45673828 29.14689453 -12.26171875 29.10546875 C-13.16535156 29.07066406 -14.06898438 29.03585938 -15 29 C-15 27.68 -15 26.36 -15 25 C-10.05 25 -5.1 25 0 25 C0 16.75 0 8.5 0 0 Z " fill="#6D1F36" transform="translate(329,201)"/>
<path d="M0 0 C0.33 0 0.66 0 1 0 C1.33 9.9 1.66 19.8 2 30 C4.64 30 7.28 30 10 30 C10 28.35 10 26.7 10 25 C10.33 25 10.66 25 11 25 C10.67 28.3 10.34 31.6 10 35 C6.7 35 3.4 35 0 35 C0 23.45 0 11.9 0 0 Z " fill="#812844" transform="translate(340,152)"/>
<path d="M0 0 C0 0.33 0 0.66 0 1 C-2.64 1 -5.28 1 -8 1 C-8.33 2.32 -8.66 3.64 -9 5 C1.89 5 12.78 5 24 5 C24 5.33 24 5.66 24 6 C19.30436582 6.02488717 14.60877081 6.04294796 9.91308594 6.05493164 C8.31867808 6.05993231 6.72427475 6.06673501 5.12988281 6.07543945 C2.82616046 6.0876933 0.52249922 6.0932711 -1.78125 6.09765625 C-2.83487732 6.10539818 -2.83487732 6.10539818 -3.90979004 6.11329651 C-8.68720941 6.11382708 -13.26878694 5.67025518 -18 5 C-13.46586082 -1.71724322 -7.50434409 -0.4944297 0 0 Z " fill="#5B2535" transform="translate(126,248)"/>
<path d="M0 0 C7.26 0.66 14.52 1.32 22 2 C22 2.66 22 3.32 22 4 C23.32 4.33 24.64 4.66 26 5 C16.43 5 6.86 5 -3 5 C-3 4.67 -3 4.34 -3 4 C2.445 3.505 2.445 3.505 8 3 C6.865625 2.87625 5.73125 2.7525 4.5625 2.625 C3.386875 2.41875 2.21125 2.2125 1 2 C0.67 1.34 0.34 0.68 0 0 Z " fill="#C1375B" transform="translate(259,101)"/>
<path d="M0 0 C0.66 0.33 1.32 0.66 2 1 C1.34 2.98 0.68 4.96 0 7 C11.55 7 23.1 7 35 7 C35 7.33 35 7.66 35 8 C22.13 8 9.26 8 -4 8 C-4 6.02 -4 4.04 -4 2 C-2.125 0.9375 -2.125 0.9375 0 0 Z " fill="#2F1F2E" transform="translate(120,101)"/>
<path d="M0 0 C3.125 0.375 3.125 0.375 6 1 C6.625 3.375 6.625 3.375 7 6 C5 8 5 8 2 8.25 C-1 8 -1 8 -3 6 C-2.63318342 3.06546739 -2.13562754 2.13562754 0 0 Z " fill="#E15B83" transform="translate(36,124)"/>
<path d="M0 0 C18.15 0 36.3 0 55 0 C55 1.32 55 2.64 55 4 C54.34 4 53.68 4 53 4 C52.505 3.01 52.505 3.01 52 2 C34.84 1.67 17.68 1.34 0 1 C0 0.67 0 0.34 0 0 Z " fill="#542235" transform="translate(100,163)"/>
<path d="M0 0 C1.32 0.33 2.64 0.66 4 1 C3.67 1.66 3.34 2.32 3 3 C14.88 3.33 26.76 3.66 39 4 C39 4.33 39 4.66 39 5 C29.1 5 19.2 5 9 5 C8.67 5.66 8.34 6.32 8 7 C8 6.34 8 5.68 8 5 C6.72125 5.020625 5.4425 5.04125 4.125 5.0625 C0.25 5.125 0.25 5.125 -2 4 C-1.34 2.68 -0.68 1.36 0 0 Z " fill="#D23D68" transform="translate(100,118)"/>
<path d="M0 0 C0.66 0.33 1.32 0.66 2 1 C2 1.99 2 2.98 2 4 C-0.25673078 5.87078857 -2.46703696 7.53585412 -4.875 9.1875 C-5.52597656 9.65091797 -6.17695312 10.11433594 -6.84765625 10.59179688 C-11.71651786 14 -11.71651786 14 -14 14 C-12.44878481 9.9408321 -9.79818814 7.96336874 -6.4375 5.3125 C-5.44621094 4.52488281 -4.45492187 3.73726562 -3.43359375 2.92578125 C-2.22896484 1.97251953 -2.22896484 1.97251953 -1 1 C-0.67 0.67 -0.34 0.34 0 0 Z " fill="#D85F7F" transform="translate(108,237)"/>
<path d="M0 0 C13.86 0 27.72 0 42 0 C42 0.33 42 0.66 42 1 C40.21384277 1.029729 40.21384277 1.029729 38.39160156 1.06005859 C33.97081468 1.13616995 29.55035457 1.22487894 25.12988281 1.31738281 C23.21718805 1.35564968 21.30442189 1.39050658 19.39160156 1.421875 C16.64101658 1.46757527 13.89092217 1.52556145 11.140625 1.5859375 C10.28631897 1.59748871 9.43201294 1.60903992 8.55181885 1.62094116 C7.75129089 1.64081085 6.95076294 1.66068054 6.12597656 1.68115234 C5.07340668 1.70113785 5.07340668 1.70113785 3.99957275 1.7215271 C1.68156921 2.04434665 0.02866316 2.85873038 -2 4 C-1.34 2.68 -0.68 1.36 0 0 Z " fill="#CD5D7C" transform="translate(104,118)"/>
<path d="M0 0 C4.95 0 9.9 0 15 0 C15 0.33 15 0.66 15 1 C12.36 1 9.72 1 7 1 C7 2.32 7 3.64 7 5 C4.36 5 1.72 5 -1 5 C-0.67 3.35 -0.34 1.7 0 0 Z " fill="#964052" transform="translate(134,248)"/>
<path d="M0 0 C0.598125 0.20625 1.19625 0.4125 1.8125 0.625 C1.1525 0.625 0.4925 0.625 -0.1875 0.625 C-0.001875 1.223125 0.18375 1.82125 0.375 2.4375 C0.8125 4.625 0.8125 4.625 -0.1875 7.625 C-2.1675 7.625 -4.1475 7.625 -6.1875 7.625 C-5.875 4.75 -5.875 4.75 -5.1875 1.625 C-2.1875 -0.375 -2.1875 -0.375 0 0 Z " fill="#8B3547" transform="translate(126.1875,100.375)"/>
<path d="M0 0 C0.99 0.33 1.98 0.66 3 1 C2.67 6.94 2.34 12.88 2 19 C1.67 19 1.34 19 1 19 C-0.15316726 12.65758005 -0.09507063 6.43311296 0 0 Z " fill="#DE597D" transform="translate(328,167)"/>
<path d="M0 0 C0.33 0 0.66 0 1 0 C0.67 2.97 0.34 5.94 0 9 C-2.97 9 -5.94 9 -9 9 C-8.67 7.68 -8.34 6.36 -8 5 C-5.36 5 -2.72 5 0 5 C0 3.35 0 1.7 0 0 Z " fill="#AD3050" transform="translate(350,177)"/>
<path d="M0 0 C2.64 0 5.28 0 8 0 C7.67 1.32 7.34 2.64 7 4 C4.69 4 2.38 4 0 4 C0 2.68 0 1.36 0 0 Z " fill="#A95060" transform="translate(141,249)"/>
<path d="M0 0 C2 1.25 2 1.25 4 3 C4 4.32 4 5.64 4 7 C3.21625 6.79375 2.4325 6.5875 1.625 6.375 C0.325625 6.189375 0.325625 6.189375 -1 6 C-1.66 6.66 -2.32 7.32 -3 8 C-3 6.02 -3 4.04 -3 2 C-2.01 2 -1.02 2 0 2 C0 1.34 0 0.68 0 0 Z " fill="#482432" transform="translate(97,65)"/>
<path d="M0 0 C0.66 0.33 1.32 0.66 2 1 C1.125 5.875 1.125 5.875 0 7 C-2.35313555 7.07271741 -4.70833668 7.08370868 -7.0625 7.0625 C-8.35285156 7.05347656 -9.64320312 7.04445313 -10.97265625 7.03515625 C-11.97167969 7.02355469 -12.97070312 7.01195313 -14 7 C-14 6.67 -14 6.34 -14 6 C-9.71 6 -5.42 6 -1 6 C-1 4.35 -1 2.7 -1 1 C-0.67 0.67 -0.34 0.34 0 0 Z " fill="#C03360" transform="translate(22,115)"/>
<path d="M0 0 C4.875 0.875 4.875 0.875 6 2 C6.07319621 4.69654854 6.09242537 7.36691458 6.0625 10.0625 C6.05798828 10.82111328 6.05347656 11.57972656 6.04882812 12.36132812 C6.0370068 14.24091871 6.01907078 16.12046899 6 18 C5.67 18 5.34 18 5 18 C5 13.38 5 8.76 5 4 C4.01 3.67 3.02 3.34 2 3 C2 2.34 2 1.68 2 1 C1.34 0.67 0.68 0.34 0 0 Z " fill="#9D2E49" transform="translate(283,39)"/>
<path d="M0 0 C0.66 0.33 1.32 0.66 2 1 C1.34 2.98 0.68 4.96 0 7 C-1.32 7 -2.64 7 -4 7 C-4 5.35 -4 3.7 -4 2 C-2.125 0.9375 -2.125 0.9375 0 0 Z " fill="#5B2030" transform="translate(120,101)"/>
<path d="M0 0 C0.99 0.33 1.98 0.66 3 1 C1.73058503 4.91402949 0.48832306 6.79072873 -3 9 C-2.01 6.03 -1.02 3.06 0 0 Z " fill="#C15576" transform="translate(181,101)"/>
<path d="M0 0 C0.66 0.33 1.32 0.66 2 1 C2 1.99 2 2.98 2 4 C0.02 4.99 -1.96 5.98 -4 7 C-4.66 6.34 -5.32 5.68 -6 5 C-4.02 3.35 -2.04 1.7 0 0 Z " fill="#DE6A82" transform="translate(108,237)"/>
<path d="M0 0 C0.33 0.99 0.66 1.98 1 3 C2.58367747 2.85795259 4.16693318 2.71119847 5.75 2.5625 C6.63171875 2.48128906 7.5134375 2.40007812 8.421875 2.31640625 C10.69350452 2.03761535 12.79851823 1.61209423 15 1 C14.01 2.485 14.01 2.485 13 4 C9.9609375 4.29296875 9.9609375 4.29296875 6.375 4.1875 C5.18648438 4.16042969 3.99796875 4.13335937 2.7734375 4.10546875 C1.40058594 4.05326172 1.40058594 4.05326172 0 4 C0 2.68 0 1.36 0 0 Z " fill="#611A2A" transform="translate(314,226)"/>
<path d="M0 0 C1.98 0 3.96 0 6 0 C6 1.98 6 3.96 6 6 C3.96166576 4.7260411 1.96147874 3.38938077 0 2 C0 1.34 0 0.68 0 0 Z " fill="#6F2A41" transform="translate(189,193)"/>
<path d="M0 0 C2.31 0 4.62 0 7 0 C7.33 0.99 7.66 1.98 8 3 C5.69 3 3.38 3 1 3 C0.67 2.01 0.34 1.02 0 0 Z " fill="#32202D" transform="translate(182,193)"/>
<path d="M0 0 C-1.65 1.32 -3.3 2.64 -5 4 C-5.66 3.34 -6.32 2.68 -7 2 C-5.26578631 -1.46842738 -3.40984787 -1.13661596 0 0 Z " fill="#DE8A93" transform="translate(134,222)"/>
<path d="M0 0 C0.66 0.33 1.32 0.66 2 1 C-0.31 3.31 -2.62 5.62 -5 8 C-5.33 7.34 -5.66 6.68 -6 6 C-4 4 -2 2 0 0 Z " fill="#3D273B" transform="translate(132,53)"/>
<path d="M0 0 C0.66 0.33 1.32 0.66 2 1 C1.54625 1.433125 1.0925 1.86625 0.625 2.3125 C-1.20024334 4.10798342 -1.20024334 4.10798342 -3 7 C-3.99 6.34 -4.98 5.68 -6 5 C-4.02 3.35 -2.04 1.7 0 0 Z " fill="#E9738C" transform="translate(121,227)"/>
<path d="M0 0 C1.32 0.33 2.64 0.66 4 1 C3.01 2.485 3.01 2.485 2 4 C0.68 4 -0.64 4 -2 4 C-1.34 2.68 -0.68 1.36 0 0 Z " fill="#B54D6A" transform="translate(100,118)"/>
</svg>
